<svg width="200" height="200" viewBox="0 0 200 200" fill="none" xmlns="http://www.w3.org/2000/svg">
  <!-- Background circle -->
  <circle cx="100" cy="100" r="96" fill="#2D2D3F" stroke="#E8A87C" stroke-width="4"/>
  
  <!-- Left ear -->
  <path d="M30 60 L55 30 L75 65" fill="#E8A87C" stroke="#E8A87C" stroke-width="2" stroke-linejoin="round"/>
  <path d="M40 58 L55 40 L65 62" fill="#F4C4A0"/>
  
  <!-- Right ear -->
  <path d="M170 60 L145 30 L125 65" fill="#E8A87C" stroke="#E8A87C" stroke-width="2" stroke-linejoin="round"/>
  <path d="M160 58 L145 40 L135 62" fill="#F4C4A0"/>
  
  <!-- Main face shape -->
  <path d="M50 100 Q50 70 100 65 Q150 70 150 100 Q155 140 100 155 Q45 140 50 100Z" fill="#E8A87C"/>
  
  <!-- White cheeks -->
  <ellipse cx="100" cy="120" rx="40" ry="30" fill="#FEFEFE"/>
  
  <!-- Left eye -->
  <ellipse cx="78" cy="95" rx="10" ry="12" fill="white"/>
  <ellipse cx="80" cy="95" rx="6" ry="8" fill="#2D2D3F"/>
  <circle cx="83" cy="93" r="2.5" fill="white"/>
  
  <!-- Right eye -->
  <ellipse cx="122" cy="95" rx="10" ry="12" fill="white"/>
  <ellipse cx="120" cy="95" rx="6" ry="8" fill="#2D2D3F"/>
  <circle cx="123" cy="93" r="2.5" fill="white"/>
  
  <!-- Nose -->
  <ellipse cx="100" cy="113" rx="6" ry="4" fill="#2D2D3F"/>
  
  <!-- Mouth -->
  <path d="M94 118 Q100 124 106 118" stroke="#2D2D3F" stroke-width="2" fill="none" stroke-linecap="round"/>
</svg>
